<svg width="5" height="5" viewBox="0 0 5 5" fill="none" xmlns="http://www.w3.org/2000/svg">
<path d="M0 0.416667C0 0.186548 0.186548 0 0.416667 0H4.58333C4.81345 0 5 0.186548 5 0.416667C5 0.646785 4.81345 0.833333 4.58333 0.833333H0.416667C0.186548 0.833333 0 0.646785 0 0.416667Z" fill="#4B4A70"/>
<path d="M0 2.50001C0 2.26989 0.186548 2.08334 0.416667 2.08334H4.58333C4.81345 2.08334 5 2.26989 5 2.50001C5 2.73013 4.81345 2.91668 4.58333 2.91668H0.416667C0.186548 2.91668 0 2.73013 0 2.50001Z" fill="#4B4A70"/>
<path d="M0.416666 4.16666C0.186548 4.16666 0 4.3532 0 4.58332C0 4.81344 0.186548 4.99999 0.416667 4.99999H4.58333C4.81345 4.99999 5 4.81344 5 4.58332C5 4.3532 4.81345 4.16666 4.58333 4.16666H0.416666Z" fill="#4B4A70"/>
</svg>
