<svg width="5" height="5" viewBox="0 0 5 5" fill="none" xmlns="http://www.w3.org/2000/svg">
<path d="M5 2.5C5 2.66696 4.98363 2.8301 4.95241 2.9879L4.74804 2.94747C4.77664 2.80292 4.79167 2.65332 4.79167 2.5C4.79167 2.34668 4.77664 2.19708 4.74804 2.05253L4.95241 2.01209C4.98363 2.1699 5 2.33304 5 2.5Z" fill="#4B4A70"/>
<path d="M4.57891 3.88904C4.39639 4.16167 4.16167 4.39639 3.88904 4.57891L3.77314 4.40579C4.02314 4.23842 4.23842 4.02314 4.4058 3.77314L4.57891 3.88904Z" fill="#4B4A70"/>
<path d="M2.9879 4.95241C2.8301 4.98363 2.66696 5 2.5 5C2.33304 5 2.1699 4.98363 2.01209 4.95241L2.05253 4.74804C2.19708 4.77664 2.34668 4.79167 2.5 4.79167C2.65332 4.79167 2.80292 4.77664 2.94747 4.74804L2.9879 4.95241Z" fill="#4B4A70"/>
<path d="M1.11096 4.57891C0.838332 4.39639 0.603607 4.16167 0.421087 3.88904L0.594205 3.77314C0.761575 4.02314 0.976861 4.23842 1.22686 4.4058L1.11096 4.57891Z" fill="#4B4A70"/>
<path d="M0 2.5C0 2.66696 0.0163674 2.8301 0.0475851 2.9879L0.251958 2.94747C0.22336 2.80292 0.208333 2.65332 0.208333 2.5C0.208333 2.34668 0.22336 2.19708 0.251958 2.05253L0.0475851 2.01209C0.0163674 2.1699 0 2.33304 0 2.5Z" fill="#4B4A70"/>
<path d="M0.421086 1.11096C0.603607 0.838332 0.838332 0.603607 1.11096 0.421087L1.22686 0.594205C0.976861 0.761575 0.761575 0.976861 0.594205 1.22686L0.421086 1.11096Z" fill="#4B4A70"/>
<path d="M2.01209 0.0475851C2.1699 0.0163674 2.33304 0 2.5 0C2.66696 0 2.8301 0.0163674 2.9879 0.0475851L2.94747 0.251958C2.80292 0.22336 2.65332 0.208333 2.5 0.208333C2.34668 0.208333 2.19708 0.22336 2.05253 0.251958L2.01209 0.0475851Z" fill="#4B4A70"/>
<path d="M3.88904 0.421086C4.16167 0.603607 4.39639 0.838332 4.57891 1.11096L4.40579 1.22686C4.23842 0.976861 4.02314 0.761575 3.77314 0.594205L3.88904 0.421086Z" fill="#4B4A70"/>
<path d="M3.92465 1.65693L2.5 0.833333L1.06986 1.6601L2.49451 2.4837L3.92465 1.65693Z" fill="#4B4A70"/>
<path d="M3.95833 1.79322L2.56736 2.59735L2.56736 4.16666L3.95833 3.36254V1.79322Z" fill="#4B4A70"/>
<path d="M1.04167 1.79956V3.36254L2.43265 4.16667L2.43264 2.60369L1.04167 1.79956Z" fill="#4B4A70"/>
</svg>
